<mxfile host="65bd71144e">
    <diagram id="IGuzUzjiXqu87RfJk5cJ" name="Page-1">
        <mxGraphModel dx="956" dy="484" grid="1" gridSize="10" guides="1" tooltips="1" connect="1" arrows="1" fold="1" page="1" pageScale="1" pageWidth="850" pageHeight="1100" math="0" shadow="0">
            <root>
                <mxCell id="0"/>
                <mxCell id="1" parent="0"/>
                <mxCell id="11" style="edgeStyle=none;html=1;exitX=1;exitY=1;exitDx=0;exitDy=0;entryX=0;entryY=0;entryDx=0;entryDy=0;" edge="1" parent="1" source="2" target="9">
                    <mxGeometry relative="1" as="geometry"/>
                </mxCell>
                <mxCell id="2" value="Producto&lt;div&gt;&lt;font color=&quot;#000000&quot;&gt;&lt;br&gt;&lt;/font&gt;&lt;div&gt;nombre&lt;/div&gt;&lt;div&gt;descripcion&lt;/div&gt;&lt;div&gt;precio_compra&lt;/div&gt;&lt;div&gt;precio_venta&lt;/div&gt;&lt;div&gt;categoriafk&lt;/div&gt;&lt;div&gt;proveedorfk&lt;/div&gt;&lt;div&gt;&lt;br&gt;&lt;/div&gt;&lt;/div&gt;" style="whiteSpace=wrap;html=1;aspect=fixed;" vertex="1" parent="1">
                    <mxGeometry x="295" y="30" width="130" height="130" as="geometry"/>
                </mxCell>
                <mxCell id="5" value="Categoria&lt;div&gt;&lt;br&gt;&lt;/div&gt;&lt;div&gt;nombre&lt;/div&gt;&lt;div&gt;descripcion&lt;/div&gt;" style="whiteSpace=wrap;html=1;aspect=fixed;" vertex="1" parent="1">
                    <mxGeometry x="120" y="40" width="80" height="80" as="geometry"/>
                </mxCell>
                <mxCell id="6" style="edgeStyle=none;html=1;exitX=1;exitY=0.5;exitDx=0;exitDy=0;entryX=0.016;entryY=0.375;entryDx=0;entryDy=0;entryPerimeter=0;" edge="1" parent="1" source="5" target="2">
                    <mxGeometry relative="1" as="geometry"/>
                </mxCell>
                <mxCell id="8" style="edgeStyle=none;html=1;exitX=1;exitY=0.5;exitDx=0;exitDy=0;entryX=0;entryY=1;entryDx=0;entryDy=0;" edge="1" parent="1" source="7" target="2">
                    <mxGeometry relative="1" as="geometry"/>
                </mxCell>
                <mxCell id="7" value="Proveedor&lt;div&gt;&lt;br&gt;&lt;/div&gt;&lt;div&gt;nombre&lt;/div&gt;&lt;div&gt;telefono&lt;/div&gt;&lt;div&gt;email&lt;/div&gt;&lt;div&gt;direcccion&lt;/div&gt;&lt;div&gt;contacto&lt;/div&gt;" style="whiteSpace=wrap;html=1;aspect=fixed;" vertex="1" parent="1">
                    <mxGeometry x="100" y="160" width="120" height="120" as="geometry"/>
                </mxCell>
                <mxCell id="9" value="Inventario&lt;div&gt;&lt;br&gt;&lt;/div&gt;&lt;div&gt;productofk&lt;/div&gt;&lt;div&gt;sucursalfk&lt;/div&gt;&lt;div&gt;stock&lt;/div&gt;&lt;div&gt;stock_minimo&lt;/div&gt;" style="whiteSpace=wrap;html=1;aspect=fixed;" vertex="1" parent="1">
                    <mxGeometry x="460" y="210" width="130" height="130" as="geometry"/>
                </mxCell>
                <mxCell id="12" style="edgeStyle=none;html=1;exitX=0.5;exitY=1;exitDx=0;exitDy=0;entryX=0.5;entryY=0;entryDx=0;entryDy=0;" edge="1" parent="1" source="10" target="9">
                    <mxGeometry relative="1" as="geometry"/>
                </mxCell>
                <mxCell id="10" value="Sucursal&lt;div&gt;&lt;br&gt;&lt;/div&gt;&lt;div&gt;nombre&lt;/div&gt;&lt;div&gt;descripcion&lt;/div&gt;" style="whiteSpace=wrap;html=1;aspect=fixed;" vertex="1" parent="1">
                    <mxGeometry x="500" y="30" width="90" height="90" as="geometry"/>
                </mxCell>
                <mxCell id="13" value="Movimiento de Inventario&lt;div&gt;&lt;br&gt;&lt;/div&gt;&lt;div&gt;inventariofk&lt;/div&gt;&lt;div&gt;tipo_movimiento&lt;/div&gt;&lt;div&gt;cantidad&lt;/div&gt;&lt;div&gt;fecha&lt;/div&gt;&lt;div&gt;observacion&lt;/div&gt;&lt;div&gt;usuario&lt;/div&gt;" style="whiteSpace=wrap;html=1;aspect=fixed;" vertex="1" parent="1">
                    <mxGeometry x="660" y="170" width="150" height="150" as="geometry"/>
                </mxCell>
                <mxCell id="14" style="edgeStyle=none;html=1;exitX=1;exitY=0.25;exitDx=0;exitDy=0;entryX=0.013;entryY=0.385;entryDx=0;entryDy=0;entryPerimeter=0;" edge="1" parent="1" source="9" target="13">
                    <mxGeometry relative="1" as="geometry"/>
                </mxCell>
            </root>
        </mxGraphModel>
    </diagram>
</mxfile>